# xmcd
#
# Track frame offsets:
#	150
#	17799
#	43253
#	62477
#	88158
#	103309
#	128368
#	146551
#	171011
#	197220
#	216336
#	237478
#
# Disc length: 3526 seconds
# Revision: 0
# Processed by: cddbd v1.5.2PL0 Copyright (c) Steve Scherf et al.
# Submitted via: dBpowerAMP V12.0
#
DISCID=b00dc40c
DTITLE=Tom Richardson - Evolution
DYEAR=2008
DGENRE=Blues
TTITLE0=Evolution
TTITLE1=Diferent Lights
TTITLE2=young Woman Blues
TTITLE3=My Friend
TTITLE4=Sega Na Lega
TTITLE5=Reaching For The Moon
TTITLE6=Don't Ever Let Nobody Drag Your Spirit Down
TTITLE7=One Platform Station
TTITLE8=Cross THe World
TTITLE9=Kokomo
TTITLE10=Apart But Not Alone
TTITLE11=Mother To Me
EXTD=
EXTT0=
EXTT1=
EXTT2=
EXTT3=
EXTT4=
EXTT5=
EXTT6=
EXTT7=
EXTT8=
EXTT9=
EXTT10=
EXTT11=
PLAYORDER=
